<?xml version="1.0" standalone="no"?>
<!DOCTYPE svg PUBLIC "-//W3C//DTD SVG 20010904//EN"
 "http://www.w3.org/TR/2001/REC-SVG-20010904/DTD/svg10.dtd">
<svg version="1.0" xmlns="http://www.w3.org/2000/svg"
 width="541.000000pt" height="366.000000pt" viewBox="0 0 541.000000 366.000000"
 preserveAspectRatio="xMidYMid meet">

<g transform="translate(0.000000,366.000000) scale(0.100000,-0.100000)"
fill="#000000" stroke="none">
<path d="M870 3028 c-11 -18 -20 -42 -20 -53 0 -12 -4 -25 -9 -30 -14 -17 -79
-206 -105 -310 -28 -109 -31 -147 -15 -215 10 -44 10 -44 -30 -77 -43 -36 -82
-116 -64 -134 7 -7 2 -25 -14 -56 -29 -58 -32 -139 -6 -159 16 -11 17 -29 13
-171 -13 -475 -1 -594 78 -791 99 -246 235 -408 438 -518 38 -21 71 -41 74
-44 8 -10 92 -39 160 -55 124 -28 304 -13 403 35 109 53 417 241 431 262 15
25 -20 58 -107 102 -86 42 -159 66 -207 66 -20 0 -41 5 -48 12 -13 13 -16 96
-4 114 4 6 34 13 68 16 110 10 172 58 222 169 17 36 37 69 46 72 9 4 28 30 41
59 29 62 34 158 10 215 -8 19 -15 50 -15 67 0 31 -16 61 -53 101 -18 20 -18
21 14 48 18 15 36 27 40 27 14 0 58 100 70 159 7 35 21 73 31 83 10 10 18 29
18 43 0 20 -6 25 -37 30 -21 4 -43 8 -49 10 -13 4 -28 111 -18 127 5 7 12 4
22 -8 26 -35 7 90 -22 142 -14 26 -23 50 -20 55 3 5 20 2 39 -5 31 -13 33 -13
28 2 -10 27 -92 140 -105 144 -8 3 -5 17 10 49 57 118 83 252 68 354 -8 53
-42 95 -76 95 -22 0 -80 -55 -80 -76 0 -14 -75 -84 -184 -169 l-88 -70 -104
-1 c-57 -1 -104 2 -104 6 0 4 14 13 30 20 62 26 45 33 -61 28 -113 -6 -169
-21 -230 -64 -54 -37 -61 -22 -13 27 l39 40 -30 -6 c-71 -16 -96 -28 -129 -66
-20 -21 -38 -39 -40 -39 -3 0 -22 35 -44 78 -21 42 -53 100 -70 127 -18 28
-37 61 -44 75 -22 47 -70 90 -100 90 -21 0 -33 -8 -48 -32z m100 -95 c38 -46
114 -201 129 -265 25 -108 4 -258 -51 -359 -31 -57 -32 -89 -4 -89 9 0 33 27
55 59 43 63 93 101 133 101 26 0 77 -31 158 -97 28 -24 70 -48 93 -54 43 -11
145 -5 160 10 4 4 -2 20 -13 34 -12 15 -18 32 -15 37 4 6 35 -15 73 -51 60
-56 185 -129 198 -116 3 3 -9 25 -27 50 -46 66 -27 73 35 14 45 -45 52 -55 45
-75 -5 -13 -9 -39 -9 -58 0 -21 -6 -37 -15 -40 -8 -3 -49 0 -92 8 -78 14 -78
14 -83 48 -6 43 -70 94 -129 104 -50 8 -159 -10 -218 -35 -32 -13 -43 -24 -43
-40 0 -24 16 -24 130 6 86 22 143 15 180 -20 16 -16 27 -31 25 -35 -2 -4 -57
-10 -122 -13 -65 -3 -162 -13 -215 -23 -106 -19 -93 -20 -458 44 -97 17 -115
30 -67 46 22 8 33 6 56 -12 32 -24 61 -20 61 7 0 10 -23 41 -51 70 -28 30 -65
82 -82 119 -30 63 -32 74 -32 182 0 103 3 124 32 205 51 147 108 275 122 275
5 0 24 -17 41 -37z m1214 21 c20 -52 -13 -225 -61 -317 l-14 -28 -32 21 c-18
12 -60 35 -94 53 -35 17 -63 36 -63 42 0 10 240 244 251 245 4 0 10 -7 13 -16z
m-119 -845 c12 -12 -2 -25 -38 -33 -32 -8 -47 15 -27 39 13 15 45 12 65 -6z
m-1238 -88 c71 -31 201 -60 355 -81 48 -7 94 -17 102 -23 10 -7 22 -45 30 -93
30 -171 50 -189 211 -189 100 1 115 3 162 28 69 36 98 81 148 234 27 85 88
112 114 51 30 -72 57 -125 88 -176 18 -29 33 -55 33 -58 0 -3 19 -28 41 -55
35 -40 40 -51 29 -64 -24 -29 -85 -37 -186 -24 -70 9 -97 10 -106 1 -18 -18 7
-39 55 -47 65 -11 115 -34 142 -67 20 -24 25 -40 25 -84 0 -31 -5 -64 -10 -75
-41 -75 -211 -59 -313 30 -38 34 -69 38 -75 9 -7 -36 96 -110 185 -133 70 -18
116 -18 168 0 22 8 43 11 48 6 12 -12 -47 -85 -90 -112 -32 -20 -50 -24 -113
-22 -87 1 -151 23 -232 77 -68 45 -88 46 -88 7 0 -24 12 -40 56 -78 70 -60
104 -116 104 -172 0 -39 -3 -43 -37 -58 -109 -44 -274 -120 -319 -145 -136
-76 -232 -94 -303 -59 -73 37 -214 211 -271 333 -33 70 -72 198 -90 293 -18
98 -23 301 -11 435 10 113 45 312 57 332 8 12 17 10 91 -21z m1347 -517 c20
-52 -10 -195 -38 -183 -15 6 -12 165 3 183 17 20 27 20 35 0z m-185 -704 c66
-21 131 -56 131 -70 0 -7 -104 -73 -280 -176 -174 -102 -419 -110 -618 -19
-59 27 -61 39 -6 48 20 3 111 44 203 90 323 163 403 181 570 127z"/>
<path d="M2964 2829 c-44 -12 -58 -32 -107 -154 -62 -154 -95 -232 -122 -291
-33 -70 -65 -152 -65 -167 0 -23 27 19 55 86 l28 67 236 0 237 0 37 -81 c21
-45 40 -79 44 -76 5 6 -83 232 -140 357 -16 36 -43 99 -59 140 -16 41 -36 83
-45 92 -22 25 -64 36 -99 27z m75 -36 c24 -24 85 -160 167 -375 6 -17 -9 -18
-216 -18 -218 0 -221 0 -215 20 15 47 137 337 151 358 15 22 45 40 71 41 7 1
26 -11 42 -26z"/>
<path d="M3990 2830 c-52 -13 -87 -58 -95 -122 -10 -83 -2 -493 10 -493 6 0
12 47 15 110 l5 110 190 5 c212 6 237 13 282 80 47 69 51 135 13 210 -42 82
-92 103 -255 106 -71 2 -146 -1 -165 -6z m366 -72 c41 -40 47 -53 52 -96 6
-67 -2 -94 -40 -138 -51 -58 -75 -64 -273 -64 l-175 0 0 146 0 146 30 29 30
30 165 -3 165 -3 46 -47z"/>
<path d="M3404 2816 c-3 -8 -4 -115 -2 -238 3 -255 10 -278 87 -333 41 -29 47
-30 172 -33 88 -3 129 0 129 7 0 7 -37 11 -107 11 -117 0 -168 15 -210 61 -39
43 -43 72 -43 310 0 151 -4 229 -10 229 -6 0 -13 -6 -16 -14z"/>
<path d="M4706 2808 c-14 -14 -52 -88 -91 -183 -37 -88 -89 -213 -117 -278
-57 -137 -59 -182 -2 -59 l38 82 236 0 236 0 28 -67 c28 -66 56 -109 56 -86 0
6 -27 76 -60 155 -34 78 -86 204 -116 278 -63 152 -86 180 -144 180 -26 0 -47
-7 -64 -22z m113 -14 c17 -14 31 -30 31 -35 0 -4 32 -85 70 -179 39 -94 70
-173 70 -175 0 -3 -99 -5 -220 -5 -121 0 -220 2 -220 5 0 17 145 363 159 379
16 19 46 34 68 35 6 1 25 -11 42 -25z"/>
<path d="M2820 1730 c-8 -15 -11 -94 -8 -258 3 -208 5 -241 22 -272 38 -72 93
-111 174 -124 64 -10 92 0 92 34 0 32 -14 40 -73 41 -49 1 -92 23 -121 63 -19
25 -21 41 -21 164 l0 137 89 3 c95 3 119 13 114 46 -3 19 -11 21 -103 26
l-100 5 -5 75 c-5 68 -7 75 -27 78 -14 2 -26 -4 -33 -18z"/>
<path d="M4450 1724 c-11 -28 -14 -584 -4 -622 5 -19 12 -23 38 -20 l31 3 5
170 c5 182 9 195 62 240 29 25 37 27 105 23 69 -3 75 -5 111 -41 l37 -37 5
-178 5 -177 30 0 30 0 3 160 c2 96 -1 175 -8 198 -14 49 -65 106 -115 128 -55
25 -150 25 -217 -1 -29 -11 -55 -20 -57 -20 -2 0 -1 39 3 86 8 91 0 114 -35
114 -12 0 -23 -11 -29 -26z"/>
<path d="M3363 1569 c-89 -44 -123 -110 -123 -238 0 -78 3 -95 28 -142 20 -38
41 -62 75 -83 42 -26 57 -29 161 -34 139 -6 182 1 192 30 12 39 -17 48 -160
48 -138 0 -164 7 -201 56 -32 42 -25 44 183 44 241 0 242 0 242 94 0 112 -36
177 -122 220 -70 35 -209 38 -275 5z m239 -60 c13 -6 35 -27 51 -46 22 -29 27
-47 27 -90 l0 -53 -182 2 -183 3 -3 40 c-3 50 23 102 68 133 28 18 46 22 116
22 46 0 93 -5 106 -11z"/>
<path d="M4004 1565 c-71 -35 -103 -85 -117 -177 -23 -166 40 -279 174 -307
64 -14 214 -14 240 -1 10 6 19 19 19 30 0 32 -32 40 -154 40 l-116 0 -45 43
-45 44 0 92 c0 107 12 137 70 170 32 18 55 21 147 21 117 0 148 10 141 46 -3
17 -14 19 -133 22 -122 2 -133 1 -181 -23z"/>
</g>
</svg>
